<svg width="243" height="55" viewBox="0 0 243 55" fill="none" xmlns="http://www.w3.org/2000/svg">
<path d="M81.68 21.1V22.96H75.78V27.06H80.38V28.92H75.78V35H73.5V21.1H81.68ZM86.073 20.2V35H83.793V20.2H86.073ZM99.0464 23.98V35H96.7664V33.7C96.4064 34.1533 95.9331 34.5133 95.3464 34.78C94.7731 35.0333 94.1597 35.16 93.5064 35.16C92.6397 35.16 91.8597 34.98 91.1664 34.62C90.4864 34.26 89.9464 33.7267 89.5464 33.02C89.1597 32.3133 88.9664 31.46 88.9664 30.46V23.98H91.2264V30.12C91.2264 31.1067 91.4731 31.8667 91.9664 32.4C92.4597 32.92 93.1331 33.18 93.9864 33.18C94.8397 33.18 95.5131 32.92 96.0064 32.4C96.5131 31.8667 96.7664 31.1067 96.7664 30.12V23.98H99.0464ZM104.715 25.84V31.94C104.715 32.3533 104.808 32.6533 104.995 32.84C105.195 33.0133 105.528 33.1 105.995 33.1H107.395V35H105.595C104.568 35 103.781 34.76 103.235 34.28C102.688 33.8 102.415 33.02 102.415 31.94V25.84H101.115V23.98H102.415V21.24H104.715V23.98H107.395V25.84H104.715ZM112.156 25.84V31.94C112.156 32.3533 112.249 32.6533 112.436 32.84C112.636 33.0133 112.969 33.1 113.436 33.1H114.836V35H113.036C112.009 35 111.223 34.76 110.676 34.28C110.129 33.8 109.856 33.02 109.856 31.94V25.84H108.556V23.98H109.856V21.24H112.156V23.98H114.836V25.84H112.156ZM127.038 29.22C127.038 29.6333 127.011 30.0067 126.958 30.34H118.538C118.604 31.22 118.931 31.9267 119.518 32.46C120.104 32.9933 120.824 33.26 121.678 33.26C122.904 33.26 123.771 32.7467 124.278 31.72H126.737C126.404 32.7333 125.798 33.5667 124.918 34.22C124.051 34.86 122.971 35.18 121.678 35.18C120.624 35.18 119.678 34.9467 118.838 34.48C118.011 34 117.358 33.3333 116.878 32.48C116.411 31.6133 116.178 30.6133 116.178 29.48C116.178 28.3467 116.404 27.3533 116.858 26.5C117.324 25.6333 117.971 24.9667 118.798 24.5C119.638 24.0333 120.598 23.8 121.678 23.8C122.718 23.8 123.644 24.0267 124.458 24.48C125.271 24.9333 125.904 25.5733 126.358 26.4C126.811 27.2133 127.038 28.1533 127.038 29.22ZM124.658 28.5C124.644 27.66 124.344 26.9867 123.758 26.48C123.171 25.9733 122.444 25.72 121.578 25.72C120.791 25.72 120.118 25.9733 119.558 26.48C118.998 26.9733 118.664 27.6467 118.558 28.5H124.658ZM131.561 25.58C131.895 25.02 132.335 24.5867 132.881 24.28C133.441 23.96 134.101 23.8 134.861 23.8V26.16H134.281C133.388 26.16 132.708 26.3867 132.241 26.84C131.788 27.2933 131.561 28.08 131.561 29.2V35H129.281V23.98H131.561V25.58Z" fill="url(#paint0_linear)"/>
<path d="M12.5737 40.1897L20.9509 48.6512L44 25.3793H27.2403L12.5737 40.1897Z" fill="#7EFDD5"/>
<path d="M27.2403 0H44L8.38245 35.9589L0 27.4974L27.2403 0Z" fill="#7EFDD5"/>
<path d="M20.9509 48.6512L27.2403 54.9947H44L29.3333 40.1896L20.9509 48.6512Z" fill="#03569B"/>
<path d="M33.3829 44.3039L29.3333 40.1896L20.9509 48.6512L33.3829 44.3039Z" fill="url(#paint1_linear)"/>
<path d="M12.5727 40.1867L20.9554 31.7249L29.3386 40.1867L20.9554 48.6486L12.5727 40.1867Z" fill="#16B9FD"/>
<path d="M44 25.3793L29.3333 40.1897L44 55H27.2403L12.5684 40.1897L27.2403 25.3793H44ZM27.2403 0L0 27.4974L8.38245 35.9589L44 0H27.2403Z" fill="url(#paint2_linear)"/>
<defs>
<linearGradient id="paint0_linear" x1="72" y1="0" x2="246.795" y2="17.8605" gradientUnits="userSpaceOnUse">
<stop stop-color="#3086C4"/>
<stop offset="0.817708" stop-color="#4ACBCF"/>
<stop offset="1" stop-color="#50D7DB"/>
</linearGradient>
<linearGradient id="paint1_linear" x1="23.3971" y1="50.2841" x2="29.6988" y2="44.0414" gradientUnits="userSpaceOnUse">
<stop stop-color="#1A237E" stop-opacity="0.4"/>
<stop offset="1" stop-color="#1A237E" stop-opacity="0"/>
</linearGradient>
<linearGradient id="paint2_linear" x1="4.68247" y1="-2.68928e-05" x2="50.3076" y2="54.5794" gradientUnits="userSpaceOnUse">
<stop stop-color="#6F92FF"/>
<stop offset="1" stop-color="#7EFDD5"/>
</linearGradient>
</defs>
</svg>
