<svg width="245" height="50" viewBox="0 0 245 50" fill="none" xmlns="http://www.w3.org/2000/svg">
<path d="M82.6125 31.8665L79.4125 26.3065H77.6725V31.8665H75.3925V17.9665H80.1925C81.2592 17.9665 82.1592 18.1531 82.8925 18.5265C83.6392 18.8998 84.1925 19.3998 84.5525 20.0265C84.9259 20.6531 85.1125 21.3531 85.1125 22.1265C85.1125 23.0331 84.8459 23.8598 84.3125 24.6065C83.7925 25.3398 82.9859 25.8398 81.8925 26.1065L85.3325 31.8665H82.6125ZM77.6725 24.4865H80.1925C81.0459 24.4865 81.6859 24.2731 82.1125 23.8465C82.5525 23.4198 82.7725 22.8465 82.7725 22.1265C82.7725 21.4065 82.5592 20.8465 82.1325 20.4465C81.7059 20.0331 81.0592 19.8265 80.1925 19.8265H77.6725V24.4865ZM98.1292 26.0865C98.1292 26.4998 98.1026 26.8731 98.0492 27.2065H89.6292C89.6959 28.0865 90.0226 28.7931 90.6092 29.3265C91.1959 29.8598 91.9159 30.1265 92.7692 30.1265C93.9959 30.1265 94.8626 29.6131 95.3692 28.5865H97.8292C97.4959 29.5998 96.8892 30.4331 96.0092 31.0865C95.1426 31.7265 94.0626 32.0465 92.7692 32.0465C91.7159 32.0465 90.7692 31.8131 89.9292 31.3465C89.1026 30.8665 88.4492 30.1998 87.9692 29.3465C87.5026 28.4798 87.2692 27.4798 87.2692 26.3465C87.2692 25.2131 87.4959 24.2198 87.9492 23.3665C88.4159 22.4998 89.0626 21.8331 89.8892 21.3665C90.7292 20.8998 91.6892 20.6665 92.7692 20.6665C93.8092 20.6665 94.7359 20.8931 95.5492 21.3465C96.3626 21.7998 96.9959 22.4398 97.4492 23.2665C97.9026 24.0798 98.1292 25.0198 98.1292 26.0865ZM95.7492 25.3665C95.7359 24.5265 95.4359 23.8531 94.8492 23.3465C94.2626 22.8398 93.5359 22.5865 92.6692 22.5865C91.8826 22.5865 91.2092 22.8398 90.6492 23.3465C90.0892 23.8398 89.7559 24.5131 89.6492 25.3665H95.7492ZM99.613 26.3065C99.613 25.1998 99.8397 24.2198 100.293 23.3665C100.76 22.5131 101.386 21.8531 102.173 21.3865C102.973 20.9065 103.853 20.6665 104.813 20.6665C105.68 20.6665 106.433 20.8398 107.073 21.1865C107.726 21.5198 108.246 21.9398 108.633 22.4465V20.8465H110.933V31.8665H108.633V30.2265C108.246 30.7465 107.72 31.1798 107.053 31.5265C106.386 31.8731 105.626 32.0465 104.773 32.0465C103.826 32.0465 102.96 31.8065 102.173 31.3265C101.386 30.8331 100.76 30.1531 100.293 29.2865C99.8397 28.4065 99.613 27.4131 99.613 26.3065ZM108.633 26.3465C108.633 25.5865 108.473 24.9265 108.153 24.3665C107.846 23.8065 107.44 23.3798 106.933 23.0865C106.426 22.7931 105.88 22.6465 105.293 22.6465C104.706 22.6465 104.16 22.7931 103.653 23.0865C103.146 23.3665 102.733 23.7865 102.413 24.3465C102.106 24.8931 101.953 25.5465 101.953 26.3065C101.953 27.0665 102.106 27.7331 102.413 28.3065C102.733 28.8798 103.146 29.3198 103.653 29.6265C104.173 29.9198 104.72 30.0665 105.293 30.0665C105.88 30.0665 106.426 29.9198 106.933 29.6265C107.44 29.3331 107.846 28.9065 108.153 28.3465C108.473 27.7731 108.633 27.1065 108.633 26.3465ZM113.168 26.3465C113.168 25.2131 113.394 24.2198 113.848 23.3665C114.314 22.4998 114.954 21.8331 115.768 21.3665C116.581 20.8998 117.514 20.6665 118.568 20.6665C119.901 20.6665 121.001 20.9865 121.868 21.6265C122.748 22.2531 123.341 23.1531 123.648 24.3265H121.188C120.988 23.7798 120.668 23.3531 120.228 23.0465C119.788 22.7398 119.234 22.5865 118.568 22.5865C117.634 22.5865 116.888 22.9198 116.328 23.5865C115.781 24.2398 115.508 25.1598 115.508 26.3465C115.508 27.5331 115.781 28.4598 116.328 29.1265C116.888 29.7931 117.634 30.1265 118.568 30.1265C119.888 30.1265 120.761 29.5465 121.188 28.3865H123.648C123.328 29.5065 122.728 30.3998 121.848 31.0665C120.968 31.7198 119.874 32.0465 118.568 32.0465C117.514 32.0465 116.581 31.8131 115.768 31.3465C114.954 30.8665 114.314 30.1998 113.848 29.3465C113.394 28.4798 113.168 27.4798 113.168 26.3465ZM128.58 22.7065V28.8065C128.58 29.2198 128.673 29.5198 128.86 29.7065C129.06 29.8798 129.393 29.9665 129.86 29.9665H131.26V31.8665H129.46C128.433 31.8665 127.647 31.6265 127.1 31.1465C126.553 30.6665 126.28 29.8865 126.28 28.8065V22.7065H124.98V20.8465H126.28V18.1065H128.58V20.8465H131.26V22.7065H128.58ZM149.977 31.8665H147.697L140.837 21.4865V31.8665H138.557V17.9465H140.837L147.697 28.3065V17.9465H149.977V31.8665ZM152.211 26.3065C152.211 25.1998 152.437 24.2198 152.891 23.3665C153.357 22.5131 153.984 21.8531 154.771 21.3865C155.571 20.9065 156.451 20.6665 157.411 20.6665C158.277 20.6665 159.031 20.8398 159.671 21.1865C160.324 21.5198 160.844 21.9398 161.231 22.4465V20.8465H163.531V31.8665H161.231V30.2265C160.844 30.7465 160.317 31.1798 159.651 31.5265C158.984 31.8731 158.224 32.0465 157.371 32.0465C156.424 32.0465 155.557 31.8065 154.771 31.3265C153.984 30.8331 153.357 30.1531 152.891 29.2865C152.437 28.4065 152.211 27.4131 152.211 26.3065ZM161.231 26.3465C161.231 25.5865 161.071 24.9265 160.751 24.3665C160.444 23.8065 160.037 23.3798 159.531 23.0865C159.024 22.7931 158.477 22.6465 157.891 22.6465C157.304 22.6465 156.757 22.7931 156.251 23.0865C155.744 23.3665 155.331 23.7865 155.011 24.3465C154.704 24.8931 154.551 25.5465 154.551 26.3065C154.551 27.0665 154.704 27.7331 155.011 28.3065C155.331 28.8798 155.744 29.3198 156.251 29.6265C156.771 29.9198 157.317 30.0665 157.891 30.0665C158.477 30.0665 159.024 29.9198 159.531 29.6265C160.037 29.3331 160.444 28.9065 160.751 28.3465C161.071 27.7731 161.231 27.1065 161.231 26.3465ZM169.185 22.7065V28.8065C169.185 29.2198 169.279 29.5198 169.465 29.7065C169.665 29.8798 169.999 29.9665 170.465 29.9665H171.865V31.8665H170.065C169.039 31.8665 168.252 31.6265 167.705 31.1465C167.159 30.6665 166.885 29.8865 166.885 28.8065V22.7065H165.585V20.8465H166.885V18.1065H169.185V20.8465H171.865V22.7065H169.185ZM175.127 19.3865C174.713 19.3865 174.367 19.2465 174.087 18.9665C173.807 18.6865 173.667 18.3398 173.667 17.9265C173.667 17.5131 173.807 17.1665 174.087 16.8865C174.367 16.6065 174.713 16.4665 175.127 16.4665C175.527 16.4665 175.867 16.6065 176.147 16.8865C176.427 17.1665 176.567 17.5131 176.567 17.9265C176.567 18.3398 176.427 18.6865 176.147 18.9665C175.867 19.2465 175.527 19.3865 175.127 19.3865ZM176.247 20.8465V31.8665H173.967V20.8465H176.247ZM183.5 29.8265L186.62 20.8465H189.04L184.84 31.8665H182.12L177.94 20.8465H180.38L183.5 29.8265ZM200.864 26.0865C200.864 26.4998 200.837 26.8731 200.784 27.2065H192.364C192.43 28.0865 192.757 28.7931 193.344 29.3265C193.93 29.8598 194.65 30.1265 195.504 30.1265C196.73 30.1265 197.597 29.6131 198.104 28.5865H200.564C200.23 29.5998 199.624 30.4331 198.744 31.0865C197.877 31.7265 196.797 32.0465 195.504 32.0465C194.45 32.0465 193.504 31.8131 192.664 31.3465C191.837 30.8665 191.184 30.1998 190.704 29.3465C190.237 28.4798 190.004 27.4798 190.004 26.3465C190.004 25.2131 190.23 24.2198 190.684 23.3665C191.15 22.4998 191.797 21.8331 192.624 21.3665C193.464 20.8998 194.424 20.6665 195.504 20.6665C196.544 20.6665 197.47 20.8931 198.284 21.3465C199.097 21.7998 199.73 22.4398 200.184 23.2665C200.637 24.0798 200.864 25.0198 200.864 26.0865ZM198.484 25.3665C198.47 24.5265 198.17 23.8531 197.584 23.3465C196.997 22.8398 196.27 22.5865 195.404 22.5865C194.617 22.5865 193.944 22.8398 193.384 23.3465C192.824 23.8398 192.49 24.5131 192.384 25.3665H198.484Z" fill="url(#paint0_linear)"/>
<path d="M27.8638 29.6438C30.5286 29.6438 32.6889 27.4849 32.6889 24.8217C32.6889 22.1586 30.5286 19.9997 27.8638 19.9997C25.199 19.9997 23.0387 22.1586 23.0387 24.8217C23.0387 27.4849 25.199 29.6438 27.8638 29.6438Z" fill="#6F92FF"/>
<path fill-rule="evenodd" clip-rule="evenodd" d="M27.8639 15.0176C34.3422 15.0176 40.3604 15.9466 44.8981 17.5078C50.3654 19.3888 53.7269 22.24 53.7269 24.8218C53.7269 27.5122 50.1644 30.5412 44.2932 32.4853C39.8545 33.9549 34.0135 34.7222 27.8639 34.7222C21.5589 34.7222 15.5884 34.002 11.0996 32.4691C5.42056 30.5292 2 27.461 2 24.8218C2 22.261 5.20954 19.4318 10.6 17.5536C15.1546 15.9667 21.3214 15.0176 27.863 15.0176H27.8639Z" stroke="url(#paint1_linear)" stroke-width="3"/>
<path fill-rule="evenodd" clip-rule="evenodd" d="M19.3236 19.9479C22.5601 14.3395 26.3717 9.59347 29.992 6.44497C34.3537 2.65149 38.5046 1.16586 40.7424 2.45551C43.0746 3.79955 43.9204 8.39707 42.6725 14.4509C41.7299 19.0279 39.476 24.4678 36.4038 29.7917C33.2539 35.2501 29.6471 40.0592 26.0763 43.1785C21.5577 47.1259 17.1892 48.5545 14.9015 47.236C12.6817 45.9576 11.8328 41.7648 12.8977 36.1598C13.7975 31.424 16.0555 25.6111 19.3226 19.9478L19.3236 19.9479Z" stroke="url(#paint2_linear)" stroke-width="3"/>
<path fill-rule="evenodd" clip-rule="evenodd" d="M19.3317 29.806C16.0861 24.2039 13.8763 18.5324 12.954 13.8256C11.8437 8.15449 12.6287 3.81852 14.8645 2.52513C17.1944 1.17714 21.6024 2.74082 26.2272 6.84476C29.724 9.94751 33.3146 14.6148 36.3957 19.9337C39.5547 25.3869 41.9223 30.9116 42.8433 35.5611C44.0087 41.4449 43.0655 45.9405 40.7799 47.2627C38.5623 48.5457 34.5041 47.1874 30.177 43.466C26.5209 40.3219 22.6093 35.4637 19.3317 29.8059V29.806Z" stroke="url(#paint3_linear)" stroke-width="3"/>
<defs>
<linearGradient id="paint0_linear" x1="73.8925" y1="9.86646" x2="244.802" y2="41.4098" gradientUnits="userSpaceOnUse">
<stop stop-color="#3086C4"/>
<stop offset="0.817708" stop-color="#4ACBCF"/>
<stop offset="1" stop-color="#50D7DB"/>
</linearGradient>
<linearGradient id="paint1_linear" x1="1.84725" y1="14.8665" x2="53.8715" y2="34.8884" gradientUnits="userSpaceOnUse">
<stop stop-color="#6F92FF"/>
<stop offset="1" stop-color="#7EFDD5"/>
</linearGradient>
<linearGradient id="paint2_linear" x1="27.8442" y1="2" x2="27.8442" y2="47.7138" gradientUnits="userSpaceOnUse">
<stop stop-color="#6F92FF"/>
<stop offset="1" stop-color="#50D7DB"/>
</linearGradient>
<linearGradient id="paint3_linear" x1="12.8542" y1="1.86645" x2="42.8466" y2="47.8837" gradientUnits="userSpaceOnUse">
<stop stop-color="#6F92FF"/>
<stop offset="1" stop-color="#7EFDD5"/>
</linearGradient>
</defs>
</svg>
