<svg width="243" height="48" viewBox="0 0 243 48" fill="none" xmlns="http://www.w3.org/2000/svg">
<path d="M80.72 31L77.52 25.44H75.78V31H73.5V17.1H78.3C79.3667 17.1 80.2667 17.2867 81 17.66C81.7467 18.0333 82.3 18.5333 82.66 19.16C83.0333 19.7867 83.22 20.4867 83.22 21.26C83.22 22.1667 82.9533 22.9933 82.42 23.74C81.9 24.4733 81.0933 24.9733 80 25.24L83.44 31H80.72ZM75.78 23.62H78.3C79.1533 23.62 79.7933 23.4067 80.22 22.98C80.66 22.5533 80.88 21.98 80.88 21.26C80.88 20.54 80.6667 19.98 80.24 19.58C79.8133 19.1667 79.1667 18.96 78.3 18.96H75.78V23.62ZM96.1167 19.98V31H93.8367V29.7C93.4767 30.1533 93.0034 30.5133 92.4167 30.78C91.8434 31.0333 91.2301 31.16 90.5767 31.16C89.7101 31.16 88.9301 30.98 88.2367 30.62C87.5567 30.26 87.0167 29.7267 86.6167 29.02C86.2301 28.3133 86.0367 27.46 86.0367 26.46V19.98H88.2967V26.12C88.2967 27.1067 88.5434 27.8667 89.0367 28.4C89.5301 28.92 90.2034 29.18 91.0567 29.18C91.9101 29.18 92.5834 28.92 93.0767 28.4C93.5834 27.8667 93.8367 27.1067 93.8367 26.12V19.98H96.1167ZM101.405 21.62C101.792 21.0867 102.318 20.6533 102.985 20.32C103.665 19.9733 104.418 19.8 105.245 19.8C106.218 19.8 107.098 20.0333 107.885 20.5C108.672 20.9667 109.292 21.6333 109.745 22.5C110.198 23.3533 110.425 24.3333 110.425 25.44C110.425 26.5467 110.198 27.54 109.745 28.42C109.292 29.2867 108.665 29.9667 107.865 30.46C107.078 30.94 106.205 31.18 105.245 31.18C104.392 31.18 103.632 31.0133 102.965 30.68C102.312 30.3467 101.792 29.92 101.405 29.4V31H99.125V16.2H101.405V21.62ZM108.105 25.44C108.105 24.68 107.945 24.0267 107.625 23.48C107.318 22.92 106.905 22.5 106.385 22.22C105.878 21.9267 105.332 21.78 104.745 21.78C104.172 21.78 103.625 21.9267 103.105 22.22C102.598 22.5133 102.185 22.94 101.865 23.5C101.558 24.06 101.405 24.72 101.405 25.48C101.405 26.24 101.558 26.9067 101.865 27.48C102.185 28.04 102.598 28.4667 103.105 28.76C103.625 29.0533 104.172 29.2 104.745 29.2C105.332 29.2 105.878 29.0533 106.385 28.76C106.905 28.4533 107.318 28.0133 107.625 27.44C107.945 26.8667 108.105 26.2 108.105 25.44ZM122.6 19.98L115.84 36.18H113.48L115.72 30.82L111.38 19.98H113.92L117.02 28.38L120.24 19.98H122.6ZM134.296 31.18C133.256 31.18 132.316 30.9467 131.476 30.48C130.636 30 129.976 29.3333 129.496 28.48C129.016 27.6133 128.776 26.6133 128.776 25.48C128.776 24.36 129.022 23.3667 129.516 22.5C130.009 21.6333 130.682 20.9667 131.536 20.5C132.389 20.0333 133.342 19.8 134.396 19.8C135.449 19.8 136.402 20.0333 137.256 20.5C138.109 20.9667 138.782 21.6333 139.276 22.5C139.769 23.3667 140.016 24.36 140.016 25.48C140.016 26.6 139.762 27.5933 139.256 28.46C138.749 29.3267 138.056 30 137.176 30.48C136.309 30.9467 135.349 31.18 134.296 31.18ZM134.296 29.2C134.882 29.2 135.429 29.06 135.936 28.78C136.456 28.5 136.876 28.08 137.196 27.52C137.516 26.96 137.676 26.28 137.676 25.48C137.676 24.68 137.522 24.0067 137.216 23.46C136.909 22.9 136.502 22.48 135.996 22.2C135.489 21.92 134.942 21.78 134.356 21.78C133.769 21.78 133.222 21.92 132.716 22.2C132.222 22.48 131.829 22.9 131.536 23.46C131.242 24.0067 131.096 24.68 131.096 25.48C131.096 26.6667 131.396 27.5867 131.996 28.24C132.609 28.88 133.376 29.2 134.296 29.2ZM147.83 19.8C148.696 19.8 149.47 19.98 150.15 20.34C150.843 20.7 151.383 21.2333 151.77 21.94C152.156 22.6467 152.35 23.5 152.35 24.5V31H150.09V24.84C150.09 23.8533 149.843 23.1 149.35 22.58C148.856 22.0467 148.183 21.78 147.33 21.78C146.476 21.78 145.796 22.0467 145.29 22.58C144.796 23.1 144.55 23.8533 144.55 24.84V31H142.27V19.98H144.55V21.24C144.923 20.7867 145.396 20.4333 145.97 20.18C146.556 19.9267 147.176 19.8 147.83 19.8ZM167.673 31L164.473 25.44H162.733V31H160.453V17.1H165.253C166.32 17.1 167.22 17.2867 167.953 17.66C168.7 18.0333 169.253 18.5333 169.613 19.16C169.986 19.7867 170.173 20.4867 170.173 21.26C170.173 22.1667 169.906 22.9933 169.373 23.74C168.853 24.4733 168.046 24.9733 166.953 25.24L170.393 31H167.673ZM162.733 23.62H165.253C166.106 23.62 166.746 23.4067 167.173 22.98C167.613 22.5533 167.833 21.98 167.833 21.26C167.833 20.54 167.62 19.98 167.193 19.58C166.766 19.1667 166.12 18.96 165.253 18.96H162.733V23.62ZM172.33 25.44C172.33 24.3333 172.557 23.3533 173.01 22.5C173.477 21.6467 174.103 20.9867 174.89 20.52C175.69 20.04 176.57 19.8 177.53 19.8C178.397 19.8 179.15 19.9733 179.79 20.32C180.443 20.6533 180.963 21.0733 181.35 21.58V19.98H183.65V31H181.35V29.36C180.963 29.88 180.437 30.3133 179.77 30.66C179.103 31.0067 178.343 31.18 177.49 31.18C176.543 31.18 175.677 30.94 174.89 30.46C174.103 29.9667 173.477 29.2867 173.01 28.42C172.557 27.54 172.33 26.5467 172.33 25.44ZM181.35 25.48C181.35 24.72 181.19 24.06 180.87 23.5C180.563 22.94 180.157 22.5133 179.65 22.22C179.143 21.9267 178.597 21.78 178.01 21.78C177.423 21.78 176.877 21.9267 176.37 22.22C175.863 22.5 175.45 22.92 175.13 23.48C174.823 24.0267 174.67 24.68 174.67 25.44C174.67 26.2 174.823 26.8667 175.13 27.44C175.45 28.0133 175.863 28.4533 176.37 28.76C176.89 29.0533 177.437 29.2 178.01 29.2C178.597 29.2 179.143 29.0533 179.65 28.76C180.157 28.4667 180.563 28.04 180.87 27.48C181.19 26.9067 181.35 26.24 181.35 25.48ZM187.805 18.52C187.391 18.52 187.045 18.38 186.765 18.1C186.485 17.82 186.345 17.4733 186.345 17.06C186.345 16.6467 186.485 16.3 186.765 16.02C187.045 15.74 187.391 15.6 187.805 15.6C188.205 15.6 188.545 15.74 188.825 16.02C189.105 16.3 189.245 16.6467 189.245 17.06C189.245 17.4733 189.105 17.82 188.825 18.1C188.545 18.38 188.205 18.52 187.805 18.52ZM188.925 19.98V31H186.645V19.98H188.925ZM194.198 16.2V31H191.918V16.2H194.198ZM201.191 31.18C200.325 31.18 199.545 31.0267 198.851 30.72C198.171 30.4 197.631 29.9733 197.231 29.44C196.831 28.8933 196.618 28.2867 196.591 27.62H198.951C198.991 28.0867 199.211 28.48 199.611 28.8C200.025 29.1067 200.538 29.26 201.151 29.26C201.791 29.26 202.285 29.14 202.631 28.9C202.991 28.6467 203.171 28.3267 203.171 27.94C203.171 27.5267 202.971 27.22 202.571 27.02C202.185 26.82 201.565 26.6 200.711 26.36C199.885 26.1333 199.211 25.9133 198.691 25.7C198.171 25.4867 197.718 25.16 197.331 24.72C196.958 24.28 196.771 23.7 196.771 22.98C196.771 22.3933 196.945 21.86 197.291 21.38C197.638 20.8867 198.131 20.5 198.771 20.22C199.425 19.94 200.171 19.8 201.011 19.8C202.265 19.8 203.271 20.12 204.031 20.76C204.805 21.3867 205.218 22.2467 205.271 23.34H202.991C202.951 22.8467 202.751 22.4533 202.391 22.16C202.031 21.8667 201.545 21.72 200.931 21.72C200.331 21.72 199.871 21.8333 199.551 22.06C199.231 22.2867 199.071 22.5867 199.071 22.96C199.071 23.2533 199.178 23.5 199.391 23.7C199.605 23.9 199.865 24.06 200.171 24.18C200.478 24.2867 200.931 24.4267 201.531 24.6C202.331 24.8133 202.985 25.0333 203.491 25.26C204.011 25.4733 204.458 25.7933 204.831 26.22C205.205 26.6467 205.398 27.2133 205.411 27.92C205.411 28.5467 205.238 29.1067 204.891 29.6C204.545 30.0933 204.051 30.48 203.411 30.76C202.785 31.04 202.045 31.18 201.191 31.18Z" fill="url(#paint0_linear)"/>
<g clip-path="url(#clip0)">
<path fill-rule="evenodd" clip-rule="evenodd" d="M37.1877 31.5938L9.78265 47.8667L45.267 45.4588L48 9.67847L37.1877 31.5938Z" fill="url(#paint1_linear)"/>
<path fill-rule="evenodd" clip-rule="evenodd" d="M45.3252 45.4345L42.2753 24.384L33.9678 35.3538L45.3252 45.4345Z" fill="url(#paint2_linear)"/>
<path fill-rule="evenodd" clip-rule="evenodd" d="M45.3663 45.4344L23.0224 43.6804L9.90137 47.821L45.3663 45.4344Z" fill="url(#paint3_linear)"/>
<path fill-rule="evenodd" clip-rule="evenodd" d="M9.93287 47.8256L15.5147 29.5394L3.23181 32.1658L9.93287 47.8256Z" fill="url(#paint4_linear)"/>
<path fill-rule="evenodd" clip-rule="evenodd" d="M33.9656 35.4143L28.8295 15.2966L14.1313 29.0742L33.9656 35.4143Z" fill="url(#paint5_linear)"/>
<path fill-rule="evenodd" clip-rule="evenodd" d="M46.8347 15.5801L32.9408 4.23239L29.0718 16.7405L46.8347 15.5801Z" fill="url(#paint6_linear)"/>
<path fill-rule="evenodd" clip-rule="evenodd" d="M40.3372 0.186543L32.1656 4.70237L27.0102 0.125977L40.3372 0.186543Z" fill="url(#paint7_linear)"/>
<path fill-rule="evenodd" clip-rule="evenodd" d="M0 38.2997L3.42321 32.0565L0.654116 24.619L0 38.2997Z" fill="url(#paint8_linear)"/>
<path fill-rule="evenodd" clip-rule="evenodd" d="M0.470001 24.384L3.25605 32.2867L15.362 29.5706L29.1833 16.7257L33.0837 4.33655L26.9421 0L16.5004 3.90774C13.2107 6.96755 6.82704 13.0218 6.59689 13.1356C6.36916 13.2519 2.38147 20.7888 0.470001 24.384Z" fill="url(#paint9_linear)"/>
<path fill-rule="evenodd" clip-rule="evenodd" d="M10.2527 10.1872C17.3825 3.11795 26.5741 -1.05871 30.1015 2.50017C33.6267 6.05905 29.8883 14.7079 22.7584 21.7748C15.6285 28.8417 6.55087 33.2485 3.02591 29.6896C-0.50147 26.1331 3.12282 17.2541 10.2527 10.1872Z" fill="url(#paint10_linear)"/>
<path fill-rule="evenodd" clip-rule="evenodd" d="M9.93286 47.8183L15.471 29.474L33.8638 35.3828C27.2136 41.6188 19.8173 46.8904 9.93286 47.8183Z" fill="url(#paint11_linear)"/>
<path fill-rule="evenodd" clip-rule="evenodd" d="M29.2075 16.6896L33.9292 35.3925C39.4844 29.5515 44.4702 23.272 46.912 15.5049L29.2075 16.6896Z" fill="url(#paint12_linear)"/>
<path fill-rule="evenodd" clip-rule="evenodd" d="M46.8638 15.5995C48.7535 9.89653 49.1895 1.71523 40.2788 0.196228L32.9672 4.23479L46.8638 15.5995Z" fill="url(#paint13_linear)"/>
<path fill-rule="evenodd" clip-rule="evenodd" d="M0 38.2173C0.261646 47.6296 7.05234 47.7699 9.94499 47.8525L3.26331 32.2479L0 38.2173Z" fill="url(#paint14_linear)"/>
<path fill-rule="evenodd" clip-rule="evenodd" d="M29.2339 16.7187C33.5026 19.3425 42.1057 24.6117 42.2801 24.7086C42.5512 24.8613 45.9892 18.9112 46.7693 15.5486L29.2339 16.7187Z" fill="url(#paint15_linear)"/>
<path fill-rule="evenodd" clip-rule="evenodd" d="M15.4638 29.474L22.8674 43.7579C27.2451 41.3837 30.6732 38.4911 33.8129 35.3925L15.4638 29.474Z" fill="url(#paint16_linear)"/>
<path fill-rule="evenodd" clip-rule="evenodd" d="M3.23422 32.2673L2.18521 44.7585C4.16452 47.4622 6.88758 47.6972 9.74388 47.4864C7.67736 42.3431 3.54916 32.0589 3.23422 32.2673Z" fill="url(#paint17_linear)"/>
</g>
<defs>
<linearGradient id="paint0_linear" x1="72" y1="0" x2="246.219" y2="20.4531" gradientUnits="userSpaceOnUse">
<stop stop-color="#3086C4"/>
<stop offset="0.817708" stop-color="#4ACBCF"/>
<stop offset="1" stop-color="#50D7DB"/>
</linearGradient>
<linearGradient id="paint1_linear" x1="45.2789" y1="37.9845" x2="33.0105" y2="24.5146" gradientUnits="userSpaceOnUse">
<stop stop-color="#6F92FF"/>
<stop offset="0.984375" stop-color="#7EFDD5"/>
</linearGradient>
<linearGradient id="paint2_linear" x1="44.5165" y1="39.9871" x2="38.5619" y2="36.4624" gradientUnits="userSpaceOnUse">
<stop stop-color="#6F92FF"/>
<stop offset="0.984375" stop-color="#7EFDD5"/>
</linearGradient>
<linearGradient id="paint3_linear" x1="42.8412" y1="46.7495" x2="42.5601" y2="44.1074" gradientUnits="userSpaceOnUse">
<stop stop-color="#7EFDD5"/>
<stop offset="0.984275" stop-color="#6F92FF"/>
<stop offset="0.984375" stop-color="#6F92FF"/>
</linearGradient>
<linearGradient id="paint4_linear" x1="14.6401" y1="43.0936" x2="9.00447" y2="38.9405" gradientUnits="userSpaceOnUse">
<stop stop-color="#6F92FF"/>
<stop offset="0.984375" stop-color="#7EFDD5"/>
</linearGradient>
<linearGradient id="paint5_linear" x1="32.2992" y1="30.711" x2="24.0828" y2="27.7632" gradientUnits="userSpaceOnUse">
<stop stop-color="#6F92FF"/>
<stop offset="0.984375" stop-color="#7EFDD5"/>
</linearGradient>
<linearGradient id="paint6_linear" x1="45.57" y1="13.5037" x2="41.9007" y2="7.78699" gradientUnits="userSpaceOnUse">
<stop stop-color="#6F92FF"/>
<stop offset="0.984375" stop-color="#7EFDD5"/>
</linearGradient>
<linearGradient id="paint7_linear" x1="39.3883" y1="3.5181" x2="38.5464" y2="0.828346" gradientUnits="userSpaceOnUse">
<stop stop-color="#6F92FF"/>
<stop offset="0.984375" stop-color="#7EFDD5"/>
</linearGradient>
<linearGradient id="paint8_linear" x1="3.17948" y1="34.7594" x2="0.925722" y2="34.1407" gradientUnits="userSpaceOnUse">
<stop stop-color="#6F92FF"/>
<stop offset="0.984375" stop-color="#7EFDD5"/>
</linearGradient>
<linearGradient id="paint9_linear" x1="30.7617" y1="23.9317" x2="20.3987" y2="12.4472" gradientUnits="userSpaceOnUse">
<stop offset="0.0729167" stop-color="#7EFDD5"/>
<stop offset="1" stop-color="#6F92FF"/>
</linearGradient>
<linearGradient id="paint10_linear" x1="29.3254" y1="23.2522" x2="19.7706" y2="12.7547" gradientUnits="userSpaceOnUse">
<stop stop-color="#7EFDD5"/>
<stop offset="1" stop-color="#6F92FF"/>
</linearGradient>
<linearGradient id="paint11_linear" x1="32.1599" y1="43.0712" x2="26.6019" y2="35.1165" gradientUnits="userSpaceOnUse">
<stop stop-color="#6F92FF"/>
<stop offset="0.984375" stop-color="#7EFDD5"/>
</linearGradient>
<linearGradient id="paint12_linear" x1="45.6514" y1="30.2461" x2="39.2362" y2="23.9805" gradientUnits="userSpaceOnUse">
<stop stop-color="#6F92FF"/>
<stop offset="0.984375" stop-color="#7EFDD5"/>
</linearGradient>
<linearGradient id="paint13_linear" x1="46.9083" y1="11.6135" x2="47.9769" y2="3.82116" gradientUnits="userSpaceOnUse">
<stop stop-color="#6F92FF"/>
<stop offset="0.984375" stop-color="#7EFDD5"/>
</linearGradient>
<linearGradient id="paint14_linear" x1="9.23691" y1="43.8144" x2="4.50787" y2="40.5078" gradientUnits="userSpaceOnUse">
<stop stop-color="#6F92FF"/>
<stop offset="0.984375" stop-color="#7EFDD5"/>
</linearGradient>
<linearGradient id="paint15_linear" x1="45.5208" y1="22.3404" x2="45.8955" y2="17.2664" gradientUnits="userSpaceOnUse">
<stop stop-color="#6F92FF"/>
<stop offset="0.984375" stop-color="#7EFDD5"/>
</linearGradient>
<linearGradient id="paint16_linear" x1="25.5088" y1="41.1682" x2="25.0124" y2="30.3008" gradientUnits="userSpaceOnUse">
<stop stop-color="#6F92FF"/>
<stop offset="0.984375" stop-color="#7EFDD5"/>
</linearGradient>
<linearGradient id="paint17_linear" x1="9.20571" y1="43.5909" x2="5.07168" y2="41.3475" gradientUnits="userSpaceOnUse">
<stop stop-color="#6F92FF"/>
<stop offset="0.984375" stop-color="#7EFDD5"/>
</linearGradient>
<clipPath id="clip0">
<rect width="48" height="47.8668" fill="white"/>
</clipPath>
</defs>
</svg>
