<svg width="233" height="219" viewBox="0 0 233 219" fill="none" xmlns="http://www.w3.org/2000/svg">
<rect width="233" height="219" rx="30" fill="url(#paint0_linear)"/>
<path d="M42.731 37.052C42.731 37.9873 42.5163 38.846 42.087 39.628C41.6577 40.3947 40.9983 41.0157 40.109 41.491C39.2197 41.9663 38.1157 42.204 36.797 42.204H34.359V48H30.426V31.854H36.797C38.085 31.854 39.1737 32.0763 40.063 32.521C40.9523 32.9657 41.6193 33.579 42.064 34.361C42.5087 35.143 42.731 36.04 42.731 37.052ZM36.498 39.076C37.2493 39.076 37.809 38.8997 38.177 38.547C38.545 38.1943 38.729 37.696 38.729 37.052C38.729 36.408 38.545 35.9097 38.177 35.557C37.809 35.2043 37.2493 35.028 36.498 35.028H34.359V39.076H36.498ZM48.7115 37.305C49.1715 36.5997 49.7465 36.0477 50.4365 35.649C51.1265 35.235 51.8932 35.028 52.7365 35.028V39.191H51.6555C50.6742 39.191 49.9382 39.4057 49.4475 39.835C48.9569 40.249 48.7115 40.985 48.7115 42.043V48H44.7785V35.166H48.7115V37.305ZM60.4584 48.184C59.2011 48.184 58.0664 47.9157 57.0544 47.379C56.0578 46.8423 55.2681 46.0757 54.6854 45.079C54.1181 44.0823 53.8344 42.917 53.8344 41.583C53.8344 40.2643 54.1258 39.1067 54.7084 38.11C55.2911 37.098 56.0884 36.3237 57.1004 35.787C58.1124 35.2503 59.2471 34.982 60.5044 34.982C61.7618 34.982 62.8964 35.2503 63.9084 35.787C64.9204 36.3237 65.7178 37.098 66.3004 38.11C66.8831 39.1067 67.1744 40.2643 67.1744 41.583C67.1744 42.9017 66.8754 44.067 66.2774 45.079C65.6948 46.0757 64.8898 46.8423 63.8624 47.379C62.8504 47.9157 61.7158 48.184 60.4584 48.184ZM60.4584 44.78C61.2098 44.78 61.8461 44.504 62.3674 43.952C62.9041 43.4 63.1724 42.6103 63.1724 41.583C63.1724 40.5557 62.9118 39.766 62.3904 39.214C61.8844 38.662 61.2558 38.386 60.5044 38.386C59.7378 38.386 59.1014 38.662 58.5954 39.214C58.0894 39.7507 57.8364 40.5403 57.8364 41.583C57.8364 42.6103 58.0818 43.4 58.5724 43.952C59.0784 44.504 59.7071 44.78 60.4584 44.78ZM75.701 38.432H73.585V48H69.652V38.432H68.226V35.166H69.652V34.798C69.652 33.2187 70.1043 32.0227 71.009 31.21C71.9136 30.382 73.24 29.968 74.988 29.968C75.2793 29.968 75.494 29.9757 75.632 29.991V33.326C74.8806 33.28 74.3516 33.3873 74.045 33.648C73.7383 33.9087 73.585 34.3763 73.585 35.051V35.166H75.701V38.432ZM79.527 33.832C78.837 33.832 78.2697 33.6327 77.825 33.234C77.3957 32.82 77.181 32.314 77.181 31.716C77.181 31.1027 77.3957 30.5967 77.825 30.198C78.2697 29.784 78.837 29.577 79.527 29.577C80.2017 29.577 80.7537 29.784 81.183 30.198C81.6277 30.5967 81.85 31.1027 81.85 31.716C81.85 32.314 81.6277 32.82 81.183 33.234C80.7537 33.6327 80.2017 33.832 79.527 33.832ZM81.482 35.166V48H77.549V35.166H81.482ZM96.4302 41.376C96.4302 41.744 96.4073 42.1273 96.3613 42.526H87.4603C87.5216 43.3233 87.7746 43.9367 88.2193 44.366C88.6793 44.78 89.2389 44.987 89.8983 44.987C90.8796 44.987 91.5619 44.573 91.9453 43.745H96.1313C95.9166 44.5883 95.5256 45.3473 94.9583 46.022C94.4063 46.6967 93.7086 47.2257 92.8653 47.609C92.0219 47.9923 91.0789 48.184 90.0363 48.184C88.7789 48.184 87.6596 47.9157 86.6783 47.379C85.6969 46.8423 84.9303 46.0757 84.3783 45.079C83.8263 44.0823 83.5503 42.917 83.5503 41.583C83.5503 40.249 83.8186 39.0837 84.3553 38.087C84.9073 37.0903 85.6739 36.3237 86.6553 35.787C87.6366 35.2503 88.7636 34.982 90.0363 34.982C91.2783 34.982 92.3823 35.2427 93.3483 35.764C94.3143 36.2853 95.0656 37.029 95.6023 37.995C96.1543 38.961 96.4302 40.088 96.4302 41.376ZM92.4053 40.341C92.4053 39.6663 92.1753 39.1297 91.7153 38.731C91.2553 38.3323 90.6803 38.133 89.9903 38.133C89.3309 38.133 88.7713 38.3247 88.3113 38.708C87.8666 39.0913 87.5906 39.6357 87.4833 40.341H92.4053ZM97.7231 41.583C97.7231 40.249 97.9914 39.0837 98.5281 38.087C99.0801 37.0903 99.8391 36.3237 100.805 35.787C101.786 35.2503 102.906 34.982 104.163 34.982C105.773 34.982 107.115 35.4037 108.188 36.247C109.277 37.0903 109.99 38.2787 110.327 39.812H106.141C105.788 38.8307 105.106 38.34 104.094 38.34C103.373 38.34 102.798 38.6237 102.369 39.191C101.94 39.743 101.725 40.5403 101.725 41.583C101.725 42.6257 101.94 43.4307 102.369 43.998C102.798 44.55 103.373 44.826 104.094 44.826C105.106 44.826 105.788 44.3353 106.141 43.354H110.327C109.99 44.8567 109.277 46.0373 108.188 46.896C107.099 47.7547 105.758 48.184 104.163 48.184C102.906 48.184 101.786 47.9157 100.805 47.379C99.8391 46.8423 99.0801 46.0757 98.5281 45.079C97.9914 44.0823 97.7231 42.917 97.7231 41.583ZM114.409 33.832C113.719 33.832 113.152 33.6327 112.707 33.234C112.278 32.82 112.063 32.314 112.063 31.716C112.063 31.1027 112.278 30.5967 112.707 30.198C113.152 29.784 113.719 29.577 114.409 29.577C115.084 29.577 115.636 29.784 116.065 30.198C116.51 30.5967 116.732 31.1027 116.732 31.716C116.732 32.314 116.51 32.82 116.065 33.234C115.636 33.6327 115.084 33.832 114.409 33.832ZM116.364 35.166V48H112.431V35.166H116.364ZM131.312 41.376C131.312 41.744 131.289 42.1273 131.243 42.526H122.342C122.403 43.3233 122.656 43.9367 123.101 44.366C123.561 44.78 124.121 44.987 124.78 44.987C125.761 44.987 126.444 44.573 126.827 43.745H131.013C130.798 44.5883 130.407 45.3473 129.84 46.022C129.288 46.6967 128.59 47.2257 127.747 47.609C126.904 47.9923 125.961 48.184 124.918 48.184C123.661 48.184 122.541 47.9157 121.56 47.379C120.579 46.8423 119.812 46.0757 119.26 45.079C118.708 44.0823 118.432 42.917 118.432 41.583C118.432 40.249 118.7 39.0837 119.237 38.087C119.789 37.0903 120.556 36.3237 121.537 35.787C122.518 35.2503 123.645 34.982 124.918 34.982C126.16 34.982 127.264 35.2427 128.23 35.764C129.196 36.2853 129.947 37.029 130.484 37.995C131.036 38.961 131.312 40.088 131.312 41.376ZM127.287 40.341C127.287 39.6663 127.057 39.1297 126.597 38.731C126.137 38.3323 125.562 38.133 124.872 38.133C124.213 38.133 123.653 38.3247 123.193 38.708C122.748 39.0913 122.472 39.6357 122.365 40.341H127.287ZM141.207 35.028C142.71 35.028 143.906 35.5187 144.795 36.5C145.7 37.466 146.152 38.8 146.152 40.502V48H142.242V41.031C142.242 40.1723 142.02 39.5053 141.575 39.03C141.13 38.5547 140.532 38.317 139.781 38.317C139.03 38.317 138.432 38.5547 137.987 39.03C137.542 39.5053 137.32 40.1723 137.32 41.031V48H133.387V35.166H137.32V36.868C137.719 36.3007 138.255 35.856 138.93 35.534C139.605 35.1967 140.364 35.028 141.207 35.028ZM156.038 44.665V48H154.037C152.611 48 151.499 47.655 150.702 46.965C149.905 46.2597 149.506 45.1173 149.506 43.538V38.432H147.942V35.166H149.506V32.038H153.439V35.166H156.015V38.432H153.439V43.584C153.439 43.9673 153.531 44.2433 153.715 44.412C153.899 44.5807 154.206 44.665 154.635 44.665H156.038ZM32.404 68.832C31.714 68.832 31.1467 68.6327 30.702 68.234C30.2727 67.82 30.058 67.314 30.058 66.716C30.058 66.1027 30.2727 65.5967 30.702 65.198C31.1467 64.784 31.714 64.577 32.404 64.577C33.0787 64.577 33.6307 64.784 34.06 65.198C34.5047 65.5967 34.727 66.1027 34.727 66.716C34.727 67.314 34.5047 67.82 34.06 68.234C33.6307 68.6327 33.0787 68.832 32.404 68.832ZM34.359 70.166V83H30.426V70.166H34.359ZM45.0292 70.028C46.5319 70.028 47.7279 70.5187 48.6172 71.5C49.5219 72.466 49.9742 73.8 49.9742 75.502V83H46.0642V76.031C46.0642 75.1723 45.8419 74.5053 45.3972 74.03C44.9525 73.5547 44.3545 73.317 43.6032 73.317C42.8519 73.317 42.2539 73.5547 41.8092 74.03C41.3645 74.5053 41.1422 75.1723 41.1422 76.031V83H37.2092V70.166H41.1422V71.868C41.5409 71.3007 42.0775 70.856 42.7522 70.534C43.4269 70.1967 44.1859 70.028 45.0292 70.028ZM68.0923 66.854V70.005H61.5143V73.409H66.4363V76.468H61.5143V83H57.5813V66.854H68.0923ZM74.0924 65.98V83H70.1594V65.98H74.0924ZM89.6156 70.166V83H85.6826V81.252C85.2839 81.8193 84.7396 82.2793 84.0496 82.632C83.3749 82.9693 82.6236 83.138 81.7956 83.138C80.8143 83.138 79.9479 82.9233 79.1966 82.494C78.4453 82.0493 77.8626 81.413 77.4486 80.585C77.0346 79.757 76.8276 78.7833 76.8276 77.664V70.166H80.7376V77.135C80.7376 77.9937 80.9599 78.6607 81.4046 79.136C81.8493 79.6113 82.4473 79.849 83.1986 79.849C83.9653 79.849 84.5709 79.6113 85.0156 79.136C85.4603 78.6607 85.6826 77.9937 85.6826 77.135V70.166H89.6156ZM99.5936 79.665V83H97.5926C96.1666 83 95.055 82.655 94.2576 81.965C93.4603 81.2597 93.0616 80.1173 93.0616 78.538V73.432H91.4976V70.166H93.0616V67.038H96.9946V70.166H99.5706V73.432H96.9946V78.584C96.9946 78.9673 97.0866 79.2433 97.2706 79.412C97.4546 79.5807 97.7613 79.665 98.1906 79.665H99.5936ZM108.937 79.665V83H106.936C105.51 83 104.399 82.655 103.601 81.965C102.804 81.2597 102.405 80.1173 102.405 78.538V73.432H100.841V70.166H102.405V67.038H106.338V70.166H108.914V73.432H106.338V78.584C106.338 78.9673 106.43 79.2433 106.614 79.412C106.798 79.5807 107.105 79.665 107.534 79.665H108.937ZM123.226 76.376C123.226 76.744 123.203 77.1273 123.157 77.526H114.256C114.317 78.3233 114.57 78.9367 115.015 79.366C115.475 79.78 116.035 79.987 116.694 79.987C117.675 79.987 118.358 79.573 118.741 78.745H122.927C122.712 79.5883 122.321 80.3473 121.754 81.022C121.202 81.6967 120.504 82.2257 119.661 82.609C118.818 82.9923 117.875 83.184 116.832 83.184C115.575 83.184 114.455 82.9157 113.474 82.379C112.493 81.8423 111.726 81.0757 111.174 80.079C110.622 79.0823 110.346 77.917 110.346 76.583C110.346 75.249 110.614 74.0837 111.151 73.087C111.703 72.0903 112.47 71.3237 113.451 70.787C114.432 70.2503 115.559 69.982 116.832 69.982C118.074 69.982 119.178 70.2427 120.144 70.764C121.11 71.2853 121.861 72.029 122.398 72.995C122.95 73.961 123.226 75.088 123.226 76.376ZM119.201 75.341C119.201 74.6663 118.971 74.1297 118.511 73.731C118.051 73.3323 117.476 73.133 116.786 73.133C116.127 73.133 115.567 73.3247 115.107 73.708C114.662 74.0913 114.386 74.6357 114.279 75.341H119.201ZM129.234 72.305C129.694 71.5997 130.269 71.0477 130.959 70.649C131.649 70.235 132.416 70.028 133.259 70.028V74.191H132.178C131.197 74.191 130.461 74.4057 129.97 74.835C129.479 75.249 129.234 75.985 129.234 77.043V83H125.301V70.166H129.234V72.305ZM139.371 79.366L136.818 85.967H134.311L135.645 79.366H139.371ZM38.66 118L35.302 111.905H34.359V118H30.426V101.854H37.027C38.2997 101.854 39.3807 102.076 40.27 102.521C41.1747 102.966 41.8493 103.579 42.294 104.361C42.7387 105.128 42.961 105.986 42.961 106.937C42.961 108.01 42.6543 108.969 42.041 109.812C41.443 110.655 40.5537 111.253 39.373 111.606L43.099 118H38.66ZM34.359 109.122H36.797C37.5177 109.122 38.0543 108.946 38.407 108.593C38.775 108.24 38.959 107.742 38.959 107.098C38.959 106.485 38.775 106.002 38.407 105.649C38.0543 105.296 37.5177 105.12 36.797 105.12H34.359V109.122ZM57.5279 111.376C57.5279 111.744 57.5049 112.127 57.4589 112.526H48.5579C48.6192 113.323 48.8722 113.937 49.3169 114.366C49.7769 114.78 50.3366 114.987 50.9959 114.987C51.9772 114.987 52.6596 114.573 53.0429 113.745H57.2289C57.0142 114.588 56.6232 115.347 56.0559 116.022C55.5039 116.697 54.8062 117.226 53.9629 117.609C53.1196 117.992 52.1766 118.184 51.1339 118.184C49.8766 118.184 48.7572 117.916 47.7759 117.379C46.7946 116.842 46.0279 116.076 45.4759 115.079C44.9239 114.082 44.6479 112.917 44.6479 111.583C44.6479 110.249 44.9162 109.084 45.4529 108.087C46.0049 107.09 46.7716 106.324 47.7529 105.787C48.7342 105.25 49.8612 104.982 51.1339 104.982C52.3759 104.982 53.4799 105.243 54.4459 105.764C55.4119 106.285 56.1632 107.029 56.6999 107.995C57.2519 108.961 57.5279 110.088 57.5279 111.376ZM53.5029 110.341C53.5029 109.666 53.2729 109.13 52.8129 108.731C52.3529 108.332 51.7779 108.133 51.0879 108.133C50.4286 108.133 49.8689 108.325 49.4089 108.708C48.9642 109.091 48.6882 109.636 48.5809 110.341H53.5029ZM58.8208 111.56C58.8208 110.241 59.0661 109.084 59.5568 108.087C60.0628 107.09 60.7451 106.324 61.6038 105.787C62.4624 105.25 63.4208 104.982 64.4788 104.982C65.3834 104.982 66.1731 105.166 66.8478 105.534C67.5378 105.902 68.0668 106.385 68.4348 106.983V105.166H72.3678V118H68.4348V116.183C68.0514 116.781 67.5148 117.264 66.8248 117.632C66.1501 118 65.3604 118.184 64.4558 118.184C63.4131 118.184 62.4624 117.916 61.6038 117.379C60.7451 116.827 60.0628 116.053 59.5568 115.056C59.0661 114.044 58.8208 112.879 58.8208 111.56ZM68.4348 111.583C68.4348 110.602 68.1588 109.827 67.6068 109.26C67.0701 108.693 66.4108 108.409 65.6288 108.409C64.8468 108.409 64.1798 108.693 63.6278 109.26C63.0911 109.812 62.8228 110.579 62.8228 111.56C62.8228 112.541 63.0911 113.323 63.6278 113.906C64.1798 114.473 64.8468 114.757 65.6288 114.757C66.4108 114.757 67.0701 114.473 67.6068 113.906C68.1588 113.339 68.4348 112.564 68.4348 111.583ZM74.4311 111.583C74.4311 110.249 74.6994 109.084 75.2361 108.087C75.7881 107.09 76.5471 106.324 77.5131 105.787C78.4944 105.25 79.6138 104.982 80.8711 104.982C82.4811 104.982 83.8228 105.404 84.8961 106.247C85.9848 107.09 86.6978 108.279 87.0351 109.812H82.8491C82.4964 108.831 81.8141 108.34 80.8021 108.34C80.0814 108.34 79.5064 108.624 79.0771 109.191C78.6478 109.743 78.4331 110.54 78.4331 111.583C78.4331 112.626 78.6478 113.431 79.0771 113.998C79.5064 114.55 80.0814 114.826 80.8021 114.826C81.8141 114.826 82.4964 114.335 82.8491 113.354H87.0351C86.6978 114.857 85.9848 116.037 84.8961 116.896C83.8074 117.755 82.4658 118.184 80.8711 118.184C79.6138 118.184 78.4944 117.916 77.5131 117.379C76.5471 116.842 75.7881 116.076 75.2361 115.079C74.6994 114.082 74.4311 112.917 74.4311 111.583ZM96.2919 114.665V118H94.2909C92.8649 118 91.7532 117.655 90.9559 116.965C90.1586 116.26 89.7599 115.117 89.7599 113.538V108.432H88.1959V105.166H89.7599V102.038H93.6929V105.166H96.2689V108.432H93.6929V113.584C93.6929 113.967 93.7849 114.243 93.9689 114.412C94.1529 114.581 94.4596 114.665 94.8889 114.665H96.2919ZM117.801 118H113.868L107.29 108.041V118H103.357V101.854H107.29L113.868 111.859V101.854H117.801V118ZM119.87 111.56C119.87 110.241 120.115 109.084 120.606 108.087C121.112 107.09 121.794 106.324 122.653 105.787C123.511 105.25 124.47 104.982 125.528 104.982C126.432 104.982 127.222 105.166 127.897 105.534C128.587 105.902 129.116 106.385 129.484 106.983V105.166H133.417V118H129.484V116.183C129.1 116.781 128.564 117.264 127.874 117.632C127.199 118 126.409 118.184 125.505 118.184C124.462 118.184 123.511 117.916 122.653 117.379C121.794 116.827 121.112 116.053 120.606 115.056C120.115 114.044 119.87 112.879 119.87 111.56ZM129.484 111.583C129.484 110.602 129.208 109.827 128.656 109.26C128.119 108.693 127.46 108.409 126.678 108.409C125.896 108.409 125.229 108.693 124.677 109.26C124.14 109.812 123.872 110.579 123.872 111.56C123.872 112.541 124.14 113.323 124.677 113.906C125.229 114.473 125.896 114.757 126.678 114.757C127.46 114.757 128.119 114.473 128.656 113.906C129.208 113.339 129.484 112.564 129.484 111.583ZM143.415 114.665V118H141.414C139.988 118 138.876 117.655 138.079 116.965C137.282 116.26 136.883 115.117 136.883 113.538V108.432H135.319V105.166H136.883V102.038H140.816V105.166H143.392V108.432H140.816V113.584C140.816 113.967 140.908 114.243 141.092 114.412C141.276 114.581 141.583 114.665 142.012 114.665H143.415ZM147.584 103.832C146.894 103.832 146.326 103.633 145.882 103.234C145.452 102.82 145.238 102.314 145.238 101.716C145.238 101.103 145.452 100.597 145.882 100.198C146.326 99.784 146.894 99.577 147.584 99.577C148.258 99.577 148.81 99.784 149.24 100.198C149.684 100.597 149.907 101.103 149.907 101.716C149.907 102.314 149.684 102.82 149.24 103.234C148.81 103.633 148.258 103.832 147.584 103.832ZM149.539 105.166V118H145.606V105.166H149.539ZM158.162 114.32L160.945 105.166H165.131L160.577 118H155.724L151.17 105.166H155.379L158.162 114.32ZM178.884 111.376C178.884 111.744 178.861 112.127 178.815 112.526H169.914C169.976 113.323 170.229 113.937 170.673 114.366C171.133 114.78 171.693 114.987 172.352 114.987C173.334 114.987 174.016 114.573 174.399 113.745H178.585C178.371 114.588 177.98 115.347 177.412 116.022C176.86 116.697 176.163 117.226 175.319 117.609C174.476 117.992 173.533 118.184 172.49 118.184C171.233 118.184 170.114 117.916 169.132 117.379C168.151 116.842 167.384 116.076 166.832 115.079C166.28 114.082 166.004 112.917 166.004 111.583C166.004 110.249 166.273 109.084 166.809 108.087C167.361 107.09 168.128 106.324 169.109 105.787C170.091 105.25 171.218 104.982 172.49 104.982C173.732 104.982 174.836 105.243 175.802 105.764C176.768 106.285 177.52 107.029 178.056 107.995C178.608 108.961 178.884 110.088 178.884 111.376ZM174.859 110.341C174.859 109.666 174.629 109.13 174.169 108.731C173.709 108.332 173.134 108.133 172.444 108.133C171.785 108.133 171.225 108.325 170.765 108.708C170.321 109.091 170.045 109.636 169.937 110.341H174.859ZM185.191 114.366L182.638 120.967H180.131L181.465 114.366H185.191ZM38.66 153L35.302 146.905H34.359V153H30.426V136.854H37.027C38.2997 136.854 39.3807 137.076 40.27 137.521C41.1747 137.966 41.8493 138.579 42.294 139.361C42.7387 140.128 42.961 140.986 42.961 141.937C42.961 143.01 42.6543 143.969 42.041 144.812C41.443 145.655 40.5537 146.253 39.373 146.606L43.099 153H38.66ZM34.359 144.122H36.797C37.5177 144.122 38.0543 143.946 38.407 143.593C38.775 143.24 38.959 142.742 38.959 142.098C38.959 141.485 38.775 141.002 38.407 140.649C38.0543 140.296 37.5177 140.12 36.797 140.12H34.359V144.122ZM58.1029 140.166V153H54.1699V151.252C53.7712 151.819 53.2269 152.279 52.5369 152.632C51.8622 152.969 51.1109 153.138 50.2829 153.138C49.3016 153.138 48.4352 152.923 47.6839 152.494C46.9326 152.049 46.3499 151.413 45.9359 150.585C45.5219 149.757 45.3149 148.783 45.3149 147.664V140.166H49.2249V147.135C49.2249 147.994 49.4472 148.661 49.8919 149.136C50.3366 149.611 50.9346 149.849 51.6859 149.849C52.4526 149.849 53.0582 149.611 53.5029 149.136C53.9476 148.661 54.1699 147.994 54.1699 147.135V140.166H58.1029ZM64.861 141.983C65.229 141.385 65.758 140.902 66.448 140.534C67.138 140.166 67.9276 139.982 68.817 139.982C69.875 139.982 70.8333 140.25 71.692 140.787C72.5506 141.324 73.2253 142.09 73.716 143.087C74.222 144.084 74.475 145.241 74.475 146.56C74.475 147.879 74.222 149.044 73.716 150.056C73.2253 151.053 72.5506 151.827 71.692 152.379C70.8333 152.916 69.875 153.184 68.817 153.184C67.9123 153.184 67.1226 153.008 66.448 152.655C65.7733 152.287 65.2443 151.804 64.861 151.206V153H60.928V135.98H64.861V141.983ZM70.473 146.56C70.473 145.579 70.197 144.812 69.645 144.26C69.1083 143.693 68.4413 143.409 67.644 143.409C66.862 143.409 66.195 143.693 65.643 144.26C65.1063 144.827 64.838 145.602 64.838 146.583C64.838 147.564 65.1063 148.339 65.643 148.906C66.195 149.473 66.862 149.757 67.644 149.757C68.426 149.757 69.093 149.473 69.645 148.906C70.197 148.323 70.473 147.541 70.473 146.56ZM89.6483 140.166L81.5983 159.095H77.3663L80.3103 152.563L75.0893 140.166H79.4823L82.4493 148.193L85.3933 140.166H89.6483ZM101.787 153.184C100.529 153.184 99.3946 152.916 98.3826 152.379C97.3859 151.842 96.5962 151.076 96.0136 150.079C95.4462 149.082 95.1626 147.917 95.1626 146.583C95.1626 145.264 95.4539 144.107 96.0366 143.11C96.6192 142.098 97.4166 141.324 98.4286 140.787C99.4406 140.25 100.575 139.982 101.833 139.982C103.09 139.982 104.225 140.25 105.237 140.787C106.249 141.324 107.046 142.098 107.629 143.11C108.211 144.107 108.503 145.264 108.503 146.583C108.503 147.902 108.204 149.067 107.606 150.079C107.023 151.076 106.218 151.842 105.191 152.379C104.179 152.916 103.044 153.184 101.787 153.184ZM101.787 149.78C102.538 149.78 103.174 149.504 103.696 148.952C104.232 148.4 104.501 147.61 104.501 146.583C104.501 145.556 104.24 144.766 103.719 144.214C103.213 143.662 102.584 143.386 101.833 143.386C101.066 143.386 100.43 143.662 99.9236 144.214C99.4176 144.751 99.1646 145.54 99.1646 146.583C99.1646 147.61 99.4099 148.4 99.9006 148.952C100.407 149.504 101.035 149.78 101.787 149.78ZM118.409 140.028C119.912 140.028 121.108 140.519 121.997 141.5C122.902 142.466 123.354 143.8 123.354 145.502V153H119.444V146.031C119.444 145.172 119.222 144.505 118.777 144.03C118.332 143.555 117.734 143.317 116.983 143.317C116.232 143.317 115.634 143.555 115.189 144.03C114.744 144.505 114.522 145.172 114.522 146.031V153H110.589V140.166H114.522V141.868C114.921 141.301 115.457 140.856 116.132 140.534C116.807 140.197 117.566 140.028 118.409 140.028ZM139.195 153L135.837 146.905H134.894V153H130.961V136.854H137.562C138.835 136.854 139.916 137.076 140.805 137.521C141.71 137.966 142.384 138.579 142.829 139.361C143.274 140.128 143.496 140.986 143.496 141.937C143.496 143.01 143.189 143.969 142.576 144.812C141.978 145.655 141.089 146.253 139.908 146.606L143.634 153H139.195ZM134.894 144.122H137.332C138.053 144.122 138.589 143.946 138.942 143.593C139.31 143.24 139.494 142.742 139.494 142.098C139.494 141.485 139.31 141.002 138.942 140.649C138.589 140.296 138.053 140.12 137.332 140.12H134.894V144.122ZM145.183 146.56C145.183 145.241 145.428 144.084 145.919 143.087C146.425 142.09 147.107 141.324 147.966 140.787C148.825 140.25 149.783 139.982 150.841 139.982C151.746 139.982 152.535 140.166 153.21 140.534C153.9 140.902 154.429 141.385 154.797 141.983V140.166H158.73V153H154.797V151.183C154.414 151.781 153.877 152.264 153.187 152.632C152.512 153 151.723 153.184 150.818 153.184C149.775 153.184 148.825 152.916 147.966 152.379C147.107 151.827 146.425 151.053 145.919 150.056C145.428 149.044 145.183 147.879 145.183 146.56ZM154.797 146.583C154.797 145.602 154.521 144.827 153.969 144.26C153.432 143.693 152.773 143.409 151.991 143.409C151.209 143.409 150.542 143.693 149.99 144.26C149.453 144.812 149.185 145.579 149.185 146.56C149.185 147.541 149.453 148.323 149.99 148.906C150.542 149.473 151.209 149.757 151.991 149.757C152.773 149.757 153.432 149.473 153.969 148.906C154.521 148.339 154.797 147.564 154.797 146.583ZM163.553 138.832C162.863 138.832 162.296 138.633 161.851 138.234C161.422 137.82 161.207 137.314 161.207 136.716C161.207 136.103 161.422 135.597 161.851 135.198C162.296 134.784 162.863 134.577 163.553 134.577C164.228 134.577 164.78 134.784 165.209 135.198C165.654 135.597 165.876 136.103 165.876 136.716C165.876 137.314 165.654 137.82 165.209 138.234C164.78 138.633 164.228 138.832 163.553 138.832ZM165.508 140.166V153H161.575V140.166H165.508ZM172.292 135.98V153H168.359V135.98H172.292ZM180.363 153.184C179.243 153.184 178.247 152.992 177.373 152.609C176.499 152.226 175.809 151.704 175.303 151.045C174.797 150.37 174.513 149.619 174.452 148.791H178.339C178.385 149.236 178.592 149.596 178.96 149.872C179.328 150.148 179.78 150.286 180.317 150.286C180.807 150.286 181.183 150.194 181.444 150.01C181.72 149.811 181.858 149.558 181.858 149.251C181.858 148.883 181.666 148.615 181.283 148.446C180.899 148.262 180.278 148.063 179.42 147.848C178.5 147.633 177.733 147.411 177.12 147.181C176.506 146.936 175.977 146.56 175.533 146.054C175.088 145.533 174.866 144.835 174.866 143.961C174.866 143.225 175.065 142.558 175.464 141.96C175.878 141.347 176.476 140.864 177.258 140.511C178.055 140.158 178.998 139.982 180.087 139.982C181.697 139.982 182.962 140.381 183.882 141.178C184.817 141.975 185.354 143.033 185.492 144.352H181.858C181.796 143.907 181.597 143.555 181.26 143.294C180.938 143.033 180.508 142.903 179.972 142.903C179.512 142.903 179.159 142.995 178.914 143.179C178.668 143.348 178.546 143.585 178.546 143.892C178.546 144.26 178.737 144.536 179.121 144.72C179.519 144.904 180.133 145.088 180.961 145.272C181.911 145.517 182.686 145.763 183.284 146.008C183.882 146.238 184.403 146.621 184.848 147.158C185.308 147.679 185.545 148.385 185.561 149.274C185.561 150.025 185.346 150.7 184.917 151.298C184.503 151.881 183.897 152.341 183.1 152.678C182.318 153.015 181.405 153.184 180.363 153.184ZM29.644 181.56C29.644 180.241 29.8893 179.084 30.38 178.087C30.886 177.09 31.5683 176.324 32.427 175.787C33.2857 175.25 34.244 174.982 35.302 174.982C36.2067 174.982 36.9963 175.166 37.671 175.534C38.361 175.902 38.89 176.385 39.258 176.983V175.166H43.191V188H39.258V186.183C38.8747 186.781 38.338 187.264 37.648 187.632C36.9733 188 36.1837 188.184 35.279 188.184C34.2363 188.184 33.2857 187.916 32.427 187.379C31.5683 186.827 30.886 186.053 30.38 185.056C29.8893 184.044 29.644 182.879 29.644 181.56ZM39.258 181.583C39.258 180.602 38.982 179.827 38.43 179.26C37.8933 178.693 37.234 178.409 36.452 178.409C35.67 178.409 35.003 178.693 34.451 179.26C33.9143 179.812 33.646 180.579 33.646 181.56C33.646 182.541 33.9143 183.323 34.451 183.906C35.003 184.473 35.67 184.757 36.452 184.757C37.234 184.757 37.8933 184.473 38.43 183.906C38.982 183.339 39.258 182.564 39.258 181.583ZM53.8564 175.028C55.359 175.028 56.555 175.519 57.4444 176.5C58.349 177.466 58.8014 178.8 58.8014 180.502V188H54.8914V181.031C54.8914 180.172 54.669 179.505 54.2244 179.03C53.7797 178.555 53.1817 178.317 52.4304 178.317C51.679 178.317 51.081 178.555 50.6364 179.03C50.1917 179.505 49.9694 180.172 49.9694 181.031V188H46.0364V175.166H49.9694V176.868C50.368 176.301 50.9047 175.856 51.5794 175.534C52.254 175.197 53.013 175.028 53.8564 175.028ZM60.7524 181.56C60.7524 180.241 60.9977 179.084 61.4884 178.087C61.9944 177.09 62.6767 176.324 63.5354 175.787C64.3941 175.25 65.3524 174.982 66.4104 174.982C67.2537 174.982 68.0204 175.158 68.7104 175.511C69.4157 175.864 69.9677 176.339 70.3664 176.937V170.98H74.2994V188H70.3664V186.16C69.9984 186.773 69.4694 187.264 68.7794 187.632C68.1047 188 67.3151 188.184 66.4104 188.184C65.3524 188.184 64.3941 187.916 63.5354 187.379C62.6767 186.827 61.9944 186.053 61.4884 185.056C60.9977 184.044 60.7524 182.879 60.7524 181.56ZM70.3664 181.583C70.3664 180.602 70.0904 179.827 69.5384 179.26C69.0017 178.693 68.3424 178.409 67.5604 178.409C66.7784 178.409 66.1114 178.693 65.5594 179.26C65.0227 179.812 64.7544 180.579 64.7544 181.56C64.7544 182.541 65.0227 183.323 65.5594 183.906C66.1114 184.473 66.7784 184.757 67.5604 184.757C68.3424 184.757 69.0017 184.473 69.5384 183.906C70.0904 183.339 70.3664 182.564 70.3664 181.583ZM96.4628 188H92.5298L85.9518 178.041V188H82.0188V171.854H85.9518L92.5298 181.859V171.854H96.4628V188ZM105.156 188.184C103.898 188.184 102.764 187.916 101.752 187.379C100.755 186.842 99.9654 186.076 99.3827 185.079C98.8154 184.082 98.5317 182.917 98.5317 181.583C98.5317 180.264 98.823 179.107 99.4057 178.11C99.9884 177.098 100.786 176.324 101.798 175.787C102.81 175.25 103.944 174.982 105.202 174.982C106.459 174.982 107.594 175.25 108.606 175.787C109.618 176.324 110.415 177.098 110.998 178.11C111.58 179.107 111.872 180.264 111.872 181.583C111.872 182.902 111.573 184.067 110.975 185.079C110.392 186.076 109.587 186.842 108.56 187.379C107.548 187.916 106.413 188.184 105.156 188.184ZM105.156 184.78C105.907 184.78 106.543 184.504 107.065 183.952C107.601 183.4 107.87 182.61 107.87 181.583C107.87 180.556 107.609 179.766 107.088 179.214C106.582 178.662 105.953 178.386 105.202 178.386C104.435 178.386 103.799 178.662 103.293 179.214C102.787 179.751 102.534 180.54 102.534 181.583C102.534 182.61 102.779 183.4 103.27 183.952C103.776 184.504 104.404 184.78 105.156 184.78ZM113.176 181.56C113.176 180.241 113.422 179.084 113.912 178.087C114.418 177.09 115.101 176.324 115.959 175.787C116.818 175.25 117.776 174.982 118.834 174.982C119.678 174.982 120.444 175.158 121.134 175.511C121.84 175.864 122.392 176.339 122.79 176.937V170.98H126.723V188H122.79V186.16C122.422 186.773 121.893 187.264 121.203 187.632C120.529 188 119.739 188.184 118.834 188.184C117.776 188.184 116.818 187.916 115.959 187.379C115.101 186.827 114.418 186.053 113.912 185.056C113.422 184.044 113.176 182.879 113.176 181.56ZM122.79 181.583C122.79 180.602 122.514 179.827 121.962 179.26C121.426 178.693 120.766 178.409 119.984 178.409C119.202 178.409 118.535 178.693 117.983 179.26C117.447 179.812 117.178 180.579 117.178 181.56C117.178 182.541 117.447 183.323 117.983 183.906C118.535 184.473 119.202 184.757 119.984 184.757C120.766 184.757 121.426 184.473 121.962 183.906C122.514 183.339 122.79 182.564 122.79 181.583ZM141.667 181.376C141.667 181.744 141.644 182.127 141.598 182.526H132.697C132.758 183.323 133.011 183.937 133.456 184.366C133.916 184.78 134.475 184.987 135.135 184.987C136.116 184.987 136.798 184.573 137.182 183.745H141.368C141.153 184.588 140.762 185.347 140.195 186.022C139.643 186.697 138.945 187.226 138.102 187.609C137.258 187.992 136.315 188.184 135.273 188.184C134.015 188.184 132.896 187.916 131.915 187.379C130.933 186.842 130.167 186.076 129.615 185.079C129.063 184.082 128.787 182.917 128.787 181.583C128.787 180.249 129.055 179.084 129.592 178.087C130.144 177.09 130.91 176.324 131.892 175.787C132.873 175.25 134 174.982 135.273 174.982C136.515 174.982 137.619 175.243 138.585 175.764C139.551 176.285 140.302 177.029 140.839 177.995C141.391 178.961 141.667 180.088 141.667 181.376ZM137.642 180.341C137.642 179.666 137.412 179.13 136.952 178.731C136.492 178.332 135.917 178.133 135.227 178.133C134.567 178.133 134.008 178.325 133.548 178.708C133.103 179.091 132.827 179.636 132.72 180.341H137.642ZM153.861 171.854V182.848C153.861 184.55 153.378 185.861 152.412 186.781C151.462 187.701 150.174 188.161 148.548 188.161C146.846 188.161 145.482 187.678 144.454 186.712C143.427 185.746 142.913 184.374 142.913 182.595H146.823C146.823 183.27 146.961 183.783 147.237 184.136C147.513 184.473 147.912 184.642 148.433 184.642C148.909 184.642 149.277 184.489 149.537 184.182C149.798 183.875 149.928 183.431 149.928 182.848V171.854H153.861ZM162.88 188.161C161.7 188.161 160.642 187.969 159.706 187.586C158.771 187.203 158.02 186.635 157.452 185.884C156.9 185.133 156.609 184.228 156.578 183.17H160.764C160.826 183.768 161.033 184.228 161.385 184.55C161.738 184.857 162.198 185.01 162.765 185.01C163.348 185.01 163.808 184.88 164.145 184.619C164.483 184.343 164.651 183.967 164.651 183.492C164.651 183.093 164.513 182.764 164.237 182.503C163.977 182.242 163.647 182.028 163.248 181.859C162.865 181.69 162.313 181.499 161.592 181.284C160.55 180.962 159.699 180.64 159.039 180.318C158.38 179.996 157.813 179.521 157.337 178.892C156.862 178.263 156.624 177.443 156.624 176.431C156.624 174.928 157.169 173.755 158.257 172.912C159.346 172.053 160.764 171.624 162.512 171.624C164.291 171.624 165.725 172.053 166.813 172.912C167.902 173.755 168.485 174.936 168.561 176.454H164.306C164.276 175.933 164.084 175.526 163.731 175.235C163.379 174.928 162.926 174.775 162.374 174.775C161.899 174.775 161.516 174.905 161.224 175.166C160.933 175.411 160.787 175.772 160.787 176.247C160.787 176.768 161.033 177.175 161.523 177.466C162.014 177.757 162.781 178.072 163.823 178.409C164.866 178.762 165.709 179.099 166.353 179.421C167.013 179.743 167.58 180.211 168.055 180.824C168.531 181.437 168.768 182.227 168.768 183.193C168.768 184.113 168.531 184.949 168.055 185.7C167.595 186.451 166.921 187.049 166.031 187.494C165.142 187.939 164.092 188.161 162.88 188.161Z" fill="white"/>
<defs>
<linearGradient id="paint0_linear" x1="0" y1="0" x2="233" y2="219" gradientUnits="userSpaceOnUse">
<stop offset="0.328125" stop-color="#7E9DFD"/>
<stop offset="1" stop-color="#7EFDD5"/>
</linearGradient>
</defs>
</svg>
